inDegrees=no
num_controls=7
num_derivatives=13
num_iterations=41
num_multipliers=7
num_parameters=0
num_slacks=7
num_states=26
objective=0.426487
objective_accelerations=0.059675
objective_balance=0.001162
objective_effort=0.015534
objective_height=0.344180
objective_ligament=0.005937
solver_duration=652.232055
status=Solve_Succeeded
success=true
DataType=double
version=3
OpenSimVersion=4.5
endheader
time	/jointset/ground_pelvis/pelvis_tilt/value	/jointset/ground_pelvis/pelvis_tx/value	/jointset/ground_pelvis/pelvis_ty/value	/jointset/hip_l/hip_flexion_l/value	/jointset/hip_l/hip_adduction_l/value	/jointset/hip_l/hip_rotation_l/value	/jointset/back/lumbar_extension/value	/jointset/patellofemoral_l/patellar_flexion_l/value	/jointset/knee_l/knee_flexion_l/value	/jointset/knee_l/knee_adduction_l/value	/jointset/knee_l/knee_rotation_l/value	/jointset/ankle_l/ankle_angle_l/value	/jointset/subtalar_l/subtalar_angle_l/value	/jointset/ground_pelvis/pelvis_tilt/speed	/jointset/ground_pelvis/pelvis_tx/speed	/jointset/ground_pelvis/pelvis_ty/speed	/jointset/hip_l/hip_flexion_l/speed	/jointset/hip_l/hip_adduction_l/speed	/jointset/hip_l/hip_rotation_l/speed	/jointset/back/lumbar_extension/speed	/jointset/patellofemoral_l/patellar_flexion_l/speed	/jointset/knee_l/knee_flexion_l/speed	/jointset/knee_l/knee_adduction_l/speed	/jointset/knee_l/knee_rotation_l/speed	/jointset/ankle_l/ankle_angle_l/speed	/jointset/subtalar_l/subtalar_angle_l/speed	/forceset/tau_hip_flexion_l	/forceset/tau_hip_adduction_l	/forceset/tau_hip_rotation_l	/forceset/tau_knee_flexion_l	/forceset/tau_ankle_angle_l	/forceset/tau_subtalar_angle_l	/forceset/tau_lumbar_extension	lambda_cid13_p0	lambda_cid13_p1	lambda_cid13_p2	lambda_cid13_p3	lambda_cid13_p4	lambda_cid13_p5	lambda_cid14_p0	/jointset/ground_pelvis/pelvis_tilt/accel	/jointset/ground_pelvis/pelvis_tx/accel	/jointset/ground_pelvis/pelvis_ty/accel	/jointset/hip_l/hip_flexion_l/accel	/jointset/hip_l/hip_adduction_l/accel	/jointset/hip_l/hip_rotation_l/accel	/jointset/back/lumbar_extension/accel	/jointset/patellofemoral_l/patellar_flexion_l/accel	/jointset/knee_l/knee_flexion_l/accel	/jointset/knee_l/knee_adduction_l/accel	/jointset/knee_l/knee_rotation_l/accel	/jointset/ankle_l/ankle_angle_l/accel	/jointset/subtalar_l/subtalar_angle_l/accel	gamma_cid13_p0	gamma_cid13_p1	gamma_cid13_p2	gamma_cid13_p3	gamma_cid13_p4	gamma_cid13_p5	gamma_cid14_p0
0.5	-0.2167841251139738	0.03326213921895212	0.770959768316384	0.9921170590017335	-0.3629669419476511	-0.001921447449241317	-0.3974643870468794	0.9656003514860449	0.965600351485985	-0.03108255059829618	-0.1740686110339272	0.3193910186891574	0.1665867695992898	-0.7490149623106186	-0.1749729725494122	-0.5337372377441696	2.418660186220176	0.04856643113951874	0.524091326287708	-0.3128086772020707	2.032039440096398	2.032039440096477	0.3474883132624249	0.003126737296240798	0.5330800061626261	0.2929090481030808	-0.101871632047989	0.07663901766878439	-0.002235793924752361	-0.1984844734928164	0.01230214275181024	-0.01707820456260851	0.1143891097276416	-23.22038378556788	16.31045734110298	-8.395705972812822	0.466041811828018	-436.7556340003452	-25.39729100801441	-4.662338155643007	0.3391251933093896	0.3740279159886627	-0.529988768749136	-1.064405251567992	0.09396541407389246	-0.9114852701696988	1.337667327128697	-1.4719573822211	-1.471957382221102	-0.04162593585668743	-0.04126442237445029	-0.9015683923995385	0.09811156248781251	-4.864318679100029e-07	1.482142266147181e-07	7.374065376277131e-06	4.685541114529362e-07	-1.500348197603632e-06	-1.112045291967272e-06	-8.518655960695346e-07
0.51	-0.2242553322913369	0.03153137132999171	0.7655972689846653	1.01624542146254	-0.3624794568072043	0.003282101042776928	-0.4005268548220721	0.9858430578657899	0.9858430578658128	-0.02762176089292066	-0.1740381825418835	0.3246747041878065	0.1695156529633856	-0.7451338974183503	-0.1711634720273522	-0.5386356329959315	2.406688280157977	0.04892056452727824	0.5166537887514233	-0.2996951332050055	2.016179345994525	2.016179345994578	0.3445731906339763	0.002982321257941668	0.5235491371659888	0.2927892158348484	-0.106234967586975	0.07769079823052395	-0.002789072678248519	-0.2014066438614719	0.0113680292490695	-0.01649641767282802	0.1177185115083132	-23.73044051732494	16.36147018344042	-8.648709148124137	0.5624507474007637	-440.1351473625137	-25.4258198830311	-4.03999432012339	0.4264672322749499	0.3870855541828616	-0.4510112531485222	-1.312235295675533	0.003445080928842401	-0.6553985799155508	1.296659630633421	-1.691243690214083	-1.69124369021792	-0.4307763744132757	0.003900923381546689	-0.9950189415395964	-0.07976688697299661	-4.58723648664196e-07	6.747302580348247e-07	7.394005338773839e-06	5.336674371058032e-07	-1.439477343573986e-06	-5.908576897932531e-07	-8.206697616576489e-07
0.52	-0.2316849548007772	0.02983923333302452	0.7601895364304798	1.040244334460275	-0.3619889687769177	0.008412172042521487	-0.4034584948183717	1.005917521651304	1.005917521651434	-0.02419298660342237	-0.1740082119866279	0.3298598464388395	0.1724407907517011	-0.7406980287224622	-0.167246994150768	-0.542783882237847	2.392770293610603	0.0491670091071001	0.5093958278328291	-0.286643121422376	1.998390921250925	1.998390921250953	0.3410852300825692	0.00303514993720505	0.5133713566396133	0.2921599329468462	-0.1105983031260579	0.07874257879225892	-0.003342351431761092	-0.2043288142301306	0.010433915746346	-0.01591463078304148	0.1210479132888849	-24.23504680244183	16.40278651514402	-8.890177201688058	0.6120446569239166	-443.4258031457113	-25.57533135043679	-3.468179962347396	0.450085954033244	0.3954233868935314	-0.3799595667798575	-1.453621348603127	0.0724276524861954	-0.8755699466319057	1.325360884241433	-1.85762351056641	-1.857623510566453	-0.1561935204484156	-0.001815478862395146	-1.030950698347099	-0.003778561466322983	-4.363713277173147e-07	9.137221792768393e-07	7.320637105599228e-06	5.567207168507792e-07	-1.36073443094971e-06	-1.745541527157599e-07	-8.09777398184775e-07
0.53	-0.2390675420460512	0.02818683948085389	0.7547440952299108	1.064094619459984	-0.3614959420413409	0.01346772239736244	-0.4062594454619202	1.025805020491712	1.025805020491819	-0.02079871231731079	-0.1739780324876259	0.3349405666890227	0.1753581238002813	-0.7357219335838702	-0.1632093866299112	-0.5461733962026644	2.376959070629761	0.04946353364972404	0.5014171623582494	-0.2735252780989656	1.978818732664488	1.97881873266447	0.3380129156828808	0.002888366718186936	0.5027125765926108	0.2913007672505535	-0.1152040806879114	0.0796265633880676	-0.003761552341621055	-0.2073132776971834	0.009452647022207397	-0.01548152130278436	0.1245762554626371	-24.78287261673262	16.52454860730866	-9.153964293011414	0.654022107578604	-446.9626792998794	-25.64337841513734	-2.945813349812201	0.5359826774862606	0.4114016488148395	-0.2990669353115309	-1.694059562731041	0.01087013112434354	-0.8043506009494287	1.308255434554286	-2.050372846175281	-2.050372846182184	-0.3461052740780171	-0.03653726500950251	-1.092320005282503	-0.1289061120039643	-4.110796973537058e-07	1.196724911388505e-06	7.220404436348811e-06	5.859545431281515e-07	-1.294147112028467e-06	2.083656109486848e-07	-7.845816942708595e-07
0.54	-0.2463974460632212	0.02657551614671746	0.7492686349649003	1.087776954871873	-0.3609994290051441	0.01843441894684588	-0.408928565796609	1.045488126183569	1.045488126183645	-0.01742783215012739	-0.1739524063250988	0.3399129034692525	0.1782664810842407	-0.7301613830966667	-0.1590328905439254	-0.5487876951264524	2.359180376052685	0.04986426923129084	0.4916250667605406	-0.2602770596489721	1.95751229153835	1.957512291538286	0.3364064063092533	0.002124482635645812	0.4916946626493906	0.2903647800225334	-0.1198098582498905	0.08051054798387926	-0.004180753252250314	-0.210297741164253	0.008471378298089343	-0.01504841182250435	0.1281045976362597	-25.32665598482605	16.63787702214657	-9.407576882655079	0.653498165993723	-450.4275045173119	-25.82619060013706	-2.471626778174007	0.5669770237554033	0.423201099919411	-0.2249165585740244	-1.847115667849799	0.09326986027457498	-1.238255971257994	1.351435909557893	-2.204474018506507	-2.204474018506547	0.1369674847637689	-0.1252356515673753	-1.102777477590481	-0.01914286781191922	-3.825360650822283e-07	1.528420455526169e-06	7.090449412291116e-06	6.220264208881747e-07	-1.241008535076538e-06	5.543501359433734e-07	-7.435610179540896e-07
0.55	-0.2536687990166223	0.02500657569736487	0.7437708907825366	1.111271886032269	-0.3604988187851839	0.02329982609511007	-0.4114645324495209	1.064949918709002	1.064949918709089	-0.01407090504874355	-0.1739349588842834	0.3447732821993131	0.1811643062726821	-0.723996185171334	-0.1547396469403489	-0.5506300599237526	2.339475118508522	0.05021574816225868	0.4816890569050361	-0.2469064000473703	1.934584873685277	1.934584873685258	0.3346782144809224	0.001443684290807341	0.4803126206253183	0.2890806270510177	-0.1246151719924928	0.08130264447423466	-0.004381059932945795	-0.2130858011280636	0.007028902368454295	-0.01480218705958637	0.13172589734688	-26.04836246809906	16.86524513361231	-9.681341990782633	0.8755198541942982	-453.9663885387469	-25.8115071282803	-2.0441757623939	0.658241016119186	0.4348471891393085	-0.1444766317736337	-2.081873813270989	-0.001395131798035854	-0.8370407652376092	1.331361618257252	-2.375932411274338	-2.375932411267581	-0.3726247330927626	-0.02628771026517674	-1.166117954195039	-0.2021053523843735	-2.962485769925262e-07	7.689562709928417e-07	5.264567521249227e-06	4.105579887380563e-07	-9.541610951459812e-07	2.166289496486615e-07	-5.833445929155692e-07
